<svg width="122" height="30" viewBox="0 0 122 30" fill="none" xmlns="http://www.w3.org/2000/svg">
<path d="M23.4191 1.19727H21.4132V25.131L2.69127 1.19727H1V28.7526H3.00592V4.81882L21.7671 28.7526H23.4191V1.19727Z" fill="#0A66C2" stroke="white" stroke-width="2" stroke-miterlimit="2"/>
<path d="M53.5824 13.8727H35.7651V15.6441H53.5824V13.8727ZM53.5824 1.19727H35.7651V3.00804H53.5824V1.19727ZM35.7651 26.9418V28.7526H53.5824V26.9418H35.7651Z" fill="#0A66C2" stroke="white" stroke-width="2" stroke-miterlimit="2"/>
<path d="M69.0186 27.1382C71.1818 28.3585 73.6204 28.949 76.3343 28.949C78.3009 28.949 80.1101 28.634 81.8014 27.9648C83.4927 27.335 84.9479 26.3509 86.1279 25.0912L84.8693 23.7922C82.6274 25.9966 79.7955 27.0988 76.4129 27.0988C74.0924 27.0988 72.0078 26.5871 70.1199 25.5242C68.232 24.5007 66.7373 23.0442 65.6754 21.1941C64.5741 19.344 64.0628 17.2576 64.0628 14.9745C64.0628 12.6913 64.5741 10.6444 65.6754 8.79421C66.7373 6.94407 68.232 5.48758 70.1199 4.42473C72.0078 3.40125 74.0924 2.85014 76.4129 2.85014C79.8348 2.85014 82.6667 3.95235 84.8693 6.11741L86.1279 4.81838C84.9479 3.55871 83.4927 2.61395 81.8407 1.98412C80.1495 1.35428 78.3009 1 76.3343 1C73.6204 1 71.1818 1.62983 69.0186 2.81078C66.8553 4.03108 65.1641 5.6844 63.9055 7.8101C62.6468 9.93579 62.0569 12.337 62.0569 14.9745C62.0569 17.6513 62.6468 20.0132 63.9055 22.1389C65.1641 24.2646 66.8553 25.9572 69.0186 27.1382Z" fill="#0A66C2" stroke="white" stroke-width="2" stroke-miterlimit="2"/>
<path d="M99.3675 27.1382C101.531 28.3585 103.969 28.949 106.683 28.949C109.358 28.949 111.796 28.3585 113.999 27.1382C116.162 25.9572 117.853 24.2646 119.112 22.1389C120.371 20.0132 121 17.6513 121 14.9745C121 12.337 120.371 9.93579 119.112 7.8101C117.853 5.6844 116.162 4.03108 113.999 2.81078C111.796 1.62983 109.358 1 106.683 1C103.969 1 101.531 1.62983 99.3675 2.85014C97.1649 4.07045 95.4736 5.72377 94.215 7.84946C92.9564 9.97516 92.3665 12.3764 92.3665 14.9745C92.3665 17.6119 92.9564 19.9738 94.215 22.0995C95.4736 24.2252 97.1649 25.9179 99.3675 27.1382ZM112.937 25.5242C111.049 26.5871 108.964 27.0988 106.683 27.0988C104.363 27.0988 102.278 26.5871 100.39 25.5242C98.5022 24.5007 97.0469 23.0442 95.985 21.1941C94.8837 19.344 94.3724 17.2576 94.3724 14.9745C94.3724 12.6913 94.8837 10.6444 95.985 8.79421C97.0469 6.94407 98.5022 5.48758 100.39 4.42473C102.278 3.40125 104.363 2.85014 106.683 2.85014C108.964 2.85014 111.049 3.40125 112.937 4.42473C114.786 5.48758 116.241 6.94407 117.342 8.79421C118.404 10.6444 118.955 12.6913 118.955 14.9745C118.955 17.2576 118.404 19.344 117.342 21.1941C116.241 23.0442 114.786 24.5007 112.937 25.5242Z" fill="#0A66C2" stroke="white" stroke-width="2" stroke-miterlimit="2"/>
</svg>
