<svg width="40" height="40" viewBox="0 0 40 40" fill="none" xmlns="http://www.w3.org/2000/svg">
<path d="M34.1666 3.33325H5.83325C5.17021 3.33325 4.53433 3.59664 4.06549 4.06549C3.59664 4.53433 3.33325 5.17021 3.33325 5.83325V34.1666C3.33325 34.8296 3.59664 35.4655 4.06549 35.9344C4.53433 36.4032 5.17021 36.6666 5.83325 36.6666H34.1666C34.8296 36.6666 35.4655 36.4032 35.9344 35.9344C36.4032 35.4655 36.6666 34.8296 36.6666 34.1666V5.83325C36.6666 5.17021 36.4032 4.53433 35.9344 4.06549C35.4655 3.59664 34.8296 3.33325 34.1666 3.33325ZM13.3333 31.6666H8.33325V16.6666H13.3333V31.6666ZM10.8333 13.7499C10.2602 13.7335 9.70473 13.5487 9.23617 13.2184C8.76761 12.8881 8.40678 12.4271 8.19874 11.8929C7.99071 11.3587 7.94471 10.775 8.06648 10.2149C8.18826 9.65469 8.47241 9.14282 8.88344 8.74321C9.29447 8.3436 9.81414 8.07397 10.3775 7.96802C10.9409 7.86207 11.523 7.92449 12.0511 8.14749C12.5793 8.37048 13.0299 8.74416 13.3469 9.22183C13.6639 9.69951 13.833 10.26 13.8333 10.8333C13.8201 11.6172 13.4971 12.364 12.935 12.9105C12.3729 13.4571 11.6172 13.7588 10.8333 13.7499ZM31.6666 31.6666H26.6666V23.7666C26.6666 21.3999 25.6666 20.5499 24.3666 20.5499C23.9854 20.5753 23.6131 20.6757 23.2708 20.8454C22.9286 21.0151 22.6233 21.2508 22.3724 21.5388C22.1215 21.8269 21.93 22.1617 21.8089 22.524C21.6878 22.8863 21.6394 23.2689 21.6666 23.6499C21.6583 23.7275 21.6583 23.8057 21.6666 23.8833V31.6666H16.6666V16.6666H21.4999V18.8333C21.9875 18.0916 22.6573 17.4875 23.4452 17.079C24.2332 16.6704 25.1128 16.471 25.9999 16.4999C28.5833 16.4999 31.5999 17.9333 31.5999 22.5999L31.6666 31.6666Z" fill="white"/>
</svg>
